<!-- Brand source: https://cribl.io/press-kit/ ; original symbol paths from Cribl.WHT_KNOCKOUT.svg. -->
<svg xmlns="http://www.w3.org/2000/svg" viewBox="60 33 46 54"><path fill="#fff" d="M81.02,46.142c0.274,0.158,0.256,0.377-0.041,0.487l-17.364,6.433     c-0.185,0.092-0.409,0.017-0.501-0.168c-0.032-0.064-0.045-0.135-0.037-0.206V36.355c0-0.316,0.224-0.445,0.498-0.287     L81.02,46.142z M85.151,48.525c-0.321-0.162-0.692-0.194-1.036-0.088l-20.503,7.596c-0.313,0.134-0.522,0.434-0.539,0.774v1.225     c0.001,0.317,0.258,0.573,0.574,0.574h38.384c0.316,0,0.351-0.129,0.077-0.285L85.151,48.525z"/><path fill="#fff" d="M63.574,83.933c-0.274,0.158-0.498,0.028-0.498-0.287V67.313c-0.008-0.071,0.005-0.143,0.037-0.206     c0.092-0.185,0.317-0.26,0.501-0.168l17.364,6.433c0.297,0.11,0.315,0.328,0.041,0.487L63.574,83.933z"/><path fill="#fff" d="M102.108,61.678c0.274-0.155,0.239-0.285-0.077-0.285H63.648c-0.317,0.001-0.573,0.258-0.574,0.574v1.225     c0.017,0.34,0.226,0.64,0.539,0.774l20.503,7.596c0.344,0.106,0.715,0.074,1.036-0.088L102.108,61.678z"/></svg>
